<?xml version="1.0" standalone="no"?>
<!DOCTYPE svg PUBLIC "-//W3C//DTD SVG 20010904//EN"
 "http://www.w3.org/TR/2001/REC-SVG-20010904/DTD/svg10.dtd">
<svg version="1.0" xmlns="http://www.w3.org/2000/svg"
 width="1200.000000pt" height="1200.000000pt" viewBox="0 0 1200.000000 1200.000000"
 preserveAspectRatio="xMidYMid meet">
<metadata>
Created by potrace 1.14, written by Peter Selinger 2001-2017
</metadata>
<g transform="translate(0.000000,1200.000000) scale(0.100000,-0.100000)"
fill="#000000" stroke="none">
<path d="M520 6395 l0 -1535 839 0 839 0 7 83 c3 45 5 114 3 152 l-3 70 -642
3 -643 2 0 1380 0 1380 -200 0 -200 0 0 -1535z"/>
<path d="M7175 7906 c-61 -28 -120 -91 -134 -143 -17 -59 -13 -153 8 -198 23
-52 85 -107 144 -130 56 -21 155 -17 204 8 44 23 93 75 114 122 25 54 25 166
0 220 -57 125 -211 180 -336 121z"/>
<path d="M3455 7074 c-246 -33 -440 -128 -591 -286 -127 -134 -210 -296 -256
-498 -20 -92 -23 -131 -23 -320 0 -189 3 -228 23 -319 76 -339 266 -599 537
-733 39 -20 87 -41 108 -48 22 -7 35 -16 30 -20 -4 -4 -57 -25 -118 -48 -726
-267 -1435 -456 -2205 -586 -185 -32 -571 -86 -608 -86 -9 0 -13 -3 -10 -6 15
-14 722 59 1123 117 1619 233 3082 726 4275 1439 439 262 853 563 1192 867 76
68 140 123 143 123 3 0 5 -335 5 -745 0 -410 -2 -745 -5 -745 -3 0 -80 55
-173 123 -452 333 -691 507 -697 507 -3 0 -41 -23 -83 -52 -42 -29 -141 -91
-220 -139 l-142 -87 294 -211 294 -211 366 0 366 0 0 -125 0 -125 200 0 200 0
0 1090 0 1090 -200 0 -200 0 0 -110 0 -110 -342 0 -341 0 -101 -97 c-527 -510
-1148 -960 -1843 -1337 -383 -207 -560 -266 -798 -266 -186 0 -320 55 -450
186 -155 156 -235 382 -235 664 1 289 72 502 216 648 88 89 177 134 301 153
150 23 280 -19 383 -121 99 -99 154 -244 148 -385 l-3 -70 -325 -5 c-360 -6
-362 -6 -438 -75 -44 -39 -92 -108 -117 -168 l-15 -37 613 0 614 0 17 71 c48
198 41 401 -19 568 -8 24 -14 45 -13 46 2 1 185 -132 408 -297 223 -164 411
-301 417 -304 13 -6 30 5 266 179 81 60 147 113 145 118 -2 5 -163 126 -358
269 l-355 259 -329 1 -329 0 -66 63 c-85 78 -157 122 -269 160 -78 26 -102 30
-232 32 -80 2 -158 1 -175 -1z"/>
<path d="M11005 7071 c-159 -20 -287 -82 -395 -191 -115 -116 -159 -219 -160
-376 0 -161 39 -266 140 -377 84 -92 187 -156 451 -285 352 -172 423 -241 423
-407 -1 -103 -28 -168 -95 -229 -64 -58 -121 -77 -246 -83 -165 -9 -369 30
-561 107 -61 25 -95 34 -97 26 -24 -67 -85 -235 -90 -247 -5 -13 9 -24 62 -48
215 -101 422 -144 688 -144 100 0 148 5 208 21 224 61 425 233 489 420 31 92
31 246 0 347 -39 129 -137 250 -279 345 -40 27 -179 103 -310 169 -266 134
-338 186 -379 276 -26 54 -32 142 -14 205 23 84 113 147 244 171 105 20 299
-7 514 -72 10 -3 29 38 62 133 l49 138 -82 24 c-108 33 -187 52 -267 65 -92
14 -284 21 -355 12z"/>
<path d="M8958 6931 c4 -47 2 -51 -20 -53 -12 -1 36 -4 107 -8 72 -4 141 -12
155 -17 25 -10 25 -11 -15 -27 -95 -40 -236 -149 -358 -277 -81 -84 -151 -146
-207 -184 -47 -31 -95 -66 -107 -77 l-22 -20 30 -38 30 -37 -70 -144 c-39 -79
-89 -201 -112 -271 l-43 -128 -46 64 c-138 190 -192 411 -140 579 24 78 90
172 153 217 29 20 43 38 40 47 -3 7 2 22 11 32 18 20 18 38 -1 59 -32 34 -218
-117 -276 -225 -129 -241 -67 -560 165 -849 l62 -77 1 -128 c0 -71 -3 -129 -6
-129 -8 0 -91 116 -124 173 -15 27 -44 91 -65 142 l-37 95 -33 -25 c-19 -14
-40 -25 -47 -25 -18 0 -17 -5 12 -89 69 -205 194 -376 375 -513 90 -69 265
-153 385 -184 87 -23 121 -27 260 -28 169 -1 222 7 355 52 270 90 503 291 630
542 92 182 115 286 114 510 0 157 -3 185 -27 275 -69 256 -234 488 -452 635
-166 112 -337 167 -550 177 l-130 6 3 -52z m563 -205 c21 -14 43 -34 48 -44
10 -18 3 -19 -122 -25 -124 -6 -294 -37 -371 -66 -47 -19 -39 -7 29 42 170
122 320 156 416 93z m110 -204 c13 -5 50 -18 82 -28 80 -24 137 -76 171 -156
15 -35 35 -78 43 -97 31 -70 73 -265 73 -343 0 -160 -33 -303 -106 -455 -49
-104 -118 -174 -218 -223 -102 -51 -191 -70 -327 -70 -294 0 -593 116 -858
335 -70 57 -68 45 -24 200 54 187 160 404 283 576 l61 86 107 51 c147 69 270
104 477 136 44 7 209 -2 236 -12z m-1153 -1186 c178 -136 426 -248 648 -292
47 -9 136 -16 222 -16 78 -1 142 -3 142 -4 0 -9 -142 -67 -205 -84 -225 -61
-426 -47 -645 45 -125 53 -170 93 -200 177 -20 56 -39 218 -26 218 4 0 33 -20
64 -44z"/>
</g>
</svg>
